<?xml version="1.0" encoding="UTF-8"?>
<svg id="Capa_1" data-name="Capa 1" xmlns="http://www.w3.org/2000/svg" viewBox="0 0 345 554">
  <defs>
    <style>
      .cls-1 {
        fill: #fc441e;
      }
    </style>
  </defs>
  <path class="cls-1" d="M345,3.5c0,8.21-4.46,16.33-13.13,23.92-8.67,7.58-21.38,14.47-37.39,20.28-16.02,5.8-35.03,10.41-55.96,13.55-20.93,3.14-43.36,4.76-66.01,4.76s-45.08-1.62-66.01-4.76c-20.93-3.14-39.94-7.74-55.96-13.55-16.02-5.8-28.72-12.69-37.39-20.28C4.46,19.83,0,11.71,0,3.5H345Z"/>
  <path class="cls-1" d="M345,95.5c0,10.7-4.46,21.3-13.13,31.19-8.67,9.89-21.38,18.87-37.39,26.44-16.02,7.57-35.03,13.57-55.96,17.67-20.93,4.1-43.36,6.2-66.01,6.2s-45.08-2.11-66.01-6.2c-20.93-4.1-39.94-10.1-55.96-17.67-16.02-7.57-28.72-16.55-37.39-26.44C4.46,116.8,0,106.2,0,95.5H345Z"/>
  <path class="cls-1" d="M345,231.5c0,13.85-4.46,27.57-13.13,40.37-8.67,12.8-21.38,24.43-37.39,34.23-16.02,9.8-35.03,17.57-55.96,22.87-20.93,5.3-43.36,8.03-66.01,8.03s-45.08-2.73-66.01-8.03c-20.93-5.3-39.94-13.07-55.96-22.87-16.02-9.8-28.72-21.43-37.39-34.23C4.46,259.07,0,245.35,0,231.5H345Z"/>
  <path class="cls-1" d="M345,422c0,17.33-4.46,34.5-13.13,50.51-8.67,16.02-21.38,30.57-37.39,42.82-16.02,12.26-35.03,21.98-55.96,28.61-20.93,6.63-43.36,10.05-66.01,10.05s-45.08-3.41-66.01-10.05c-20.93-6.63-39.94-16.36-55.96-28.61-16.02-12.26-28.72-26.81-37.39-42.82C4.46,456.5,0,439.33,0,422H345Z"/>
  <rect class="cls-1" y="60" width="345" height="36"/>
  <rect class="cls-1" y="177" width="345" height="55"/>
  <rect class="cls-1" y="337" width="345" height="89"/>
</svg>