<?xml version="1.0" encoding="UTF-8"?>
<svg id="Capa_1" data-name="Capa 1" xmlns="http://www.w3.org/2000/svg" viewBox="0 0 285 549">
  <defs>
    <style>
      .cls-1 {
        fill: #fc441e;
      }
    </style>
  </defs>
  <path class="cls-1" d="M118.5,118.82c-15.42,0-30.68,1.54-44.93,4.52-14.24,2.98-27.19,7.36-38.09,12.88-10.9,5.52-19.55,12.07-25.45,19.27-5.9,7.21-8.94,14.93-8.94,22.74s3.04,15.53,8.94,22.73c5.9,7.21,14.55,13.76,25.45,19.27,10.9,5.52,23.84,9.89,38.09,12.88,14.24,2.99,29.51,4.52,44.93,4.52V118.82Z"/>
  <path class="cls-1" d="M118.5,0c-15.42,0-30.68,1.54-44.93,4.52-14.24,2.99-27.19,7.36-38.09,12.88-10.9,5.52-19.55,12.07-25.45,19.27C4.13,43.88,1.1,51.61,1.1,59.41s3.04,15.53,8.94,22.73c5.9,7.21,14.55,13.76,25.45,19.27,10.9,5.52,23.84,9.89,38.09,12.88,14.24,2.99,29.51,4.52,44.93,4.52V0Z"/>
  <rect class="cls-1" x="118.39" y="0" width="41.66" height="238"/>
  <rect class="cls-1" x="181" y="0" width="101" height="549"/>
  <path class="cls-1" d="M159.5,549c-20.95,0-41.69-3.76-61.04-11.08-19.35-7.31-36.93-18.03-51.75-31.54-14.81-13.51-26.56-29.55-34.58-47.2C4.13,441.53,0,422.61,0,403.5c0-19.11,4.13-38.03,12.14-55.68,8.02-17.65,19.76-33.69,34.58-47.2,14.81-13.51,32.39-24.23,51.75-31.54,19.35-7.31,40.09-11.08,61.04-11.08v98.3c-6.8,0-13.52,1.22-19.8,3.59s-11.98,5.85-16.79,10.23c-4.81,4.38-8.62,9.59-11.22,15.31-2.6,5.73-3.94,11.87-3.94,18.07s1.34,12.34,3.94,18.07c2.6,5.73,6.41,10.93,11.22,15.31,4.81,4.38,10.51,7.86,16.79,10.23s13.01,3.59,19.8,3.59v98.3Z"/>
</svg>