<?xml version="1.0" encoding="UTF-8"?>
<svg id="Capa_1" data-name="Capa 1" xmlns="http://www.w3.org/2000/svg" viewBox="0 0 265.36 74">
  <defs>
    <style>
      .cls-1 {
        fill: #fc441e;
      }
    </style>
  </defs>
  <path class="cls-1" d="M.86,0c1.77,0,3.53,.96,5.17,2.82,1.64,1.86,3.13,4.58,4.38,8.02,1.25,3.44,2.25,7.51,2.93,12,.68,4.49,1.03,9.3,1.03,14.16s-.35,9.67-1.03,14.16c-.68,4.49-1.67,8.57-2.93,12-1.25,3.44-2.74,6.16-4.38,8.02-1.64,1.86-3.39,2.82-5.17,2.82V0Z"/>
  <path class="cls-1" d="M101.86,0c3.61,0,7.19,.96,10.52,2.82,3.34,1.86,6.37,4.58,8.92,8.02,2.55,3.44,4.58,7.51,5.96,12,1.38,4.49,2.09,9.3,2.09,14.16s-.71,9.67-2.09,14.16c-1.38,4.49-3.41,8.57-5.96,12-2.55,3.44-5.59,6.16-8.92,8.02-3.34,1.86-6.91,2.82-10.52,2.82V0Z"/>
  <path class="cls-1" d="M153.86,0c4.93,0,9.8,.96,14.35,2.82,4.55,1.86,8.68,4.58,12.17,8.02,3.48,3.44,6.24,7.51,8.13,12,1.88,4.49,2.85,9.3,2.85,14.16s-.97,9.67-2.85,14.16c-1.88,4.49-4.65,8.57-8.13,12-3.48,3.44-7.62,6.16-12.17,8.02-4.55,1.86-9.43,2.82-14.35,2.82V0Z"/>
  <path class="cls-1" d="M220.36,0c5.91,0,11.76,.96,17.22,2.82,5.46,1.86,10.42,4.58,14.6,8.02,4.18,3.44,7.49,7.51,9.76,12,2.26,4.49,3.42,9.3,3.42,14.16s-1.16,9.67-3.42,14.16c-2.26,4.49-5.58,8.57-9.76,12-4.18,3.44-9.14,6.16-14.6,8.02-5.46,1.86-11.31,2.82-17.22,2.82V0Z"/>
  <rect class="cls-1" x="85.36" y="0" width="17" height="74"/>
  <path class="cls-1" d="M62.36,0c3.02,0,6.01,.96,8.8,2.82,2.79,1.86,5.33,4.58,7.46,8.02,2.14,3.44,3.83,7.51,4.99,12,1.16,4.49,1.75,9.3,1.75,14.16s-.59,9.67-1.75,14.16c-1.16,4.49-2.85,8.57-4.99,12-2.14,3.44-4.67,6.16-7.46,8.02-2.79,1.86-5.78,2.82-8.8,2.82V0Z"/>
  <rect class="cls-1" x="47.36" y="0" width="15" height="74"/>
  <path class="cls-1" d="M24.36,0c3.02,0,6.01,.96,8.8,2.82,2.79,1.86,5.33,4.58,7.46,8.02,2.14,3.44,3.83,7.51,4.99,12,1.16,4.49,1.75,9.3,1.75,14.16s-.59,9.67-1.75,14.16c-1.16,4.49-2.85,8.57-4.99,12-2.14,3.44-4.67,6.16-7.46,8.02-2.79,1.86-5.78,2.82-8.8,2.82V0Z"/>
  <rect class="cls-1" x="14.36" y="0" width="10" height="74"/>
  <rect class="cls-1" x="129.36" y="0" width="25" height="74"/>
  <rect class="cls-1" x="191.36" y="0" width="31" height="74"/>
</svg>