<?xml version="1.0" encoding="UTF-8"?>
<svg id="Capa_1" data-name="Capa 1" xmlns="http://www.w3.org/2000/svg" viewBox="0 0 266.4 115">
  <defs>
    <style>
      .cls-1 {
        fill: #fc441e;
      }
    </style>
  </defs>
  <path class="cls-1" d="M265.5,0c-4.01,0-7.97,1.49-11.67,4.38-3.7,2.89-7.06,7.13-9.9,12.46-2.83,5.34-5.08,11.68-6.61,18.65-1.53,6.98-2.32,14.45-2.32,22s.79,15.03,2.32,22c1.53,6.98,3.78,13.31,6.61,18.65,2.83,5.34,6.2,9.57,9.9,12.46,3.7,2.89,7.67,4.38,11.67,4.38V0Z"/>
  <path class="cls-1" d="M218,0c-5.25,0-10.45,1.49-15.31,4.38-4.85,2.89-9.26,7.13-12.98,12.46-3.71,5.34-6.66,11.68-8.67,18.65s-3.04,14.45-3.04,22,1.04,15.03,3.04,22c2.01,6.98,4.96,13.31,8.67,18.65,3.71,5.34,8.12,9.57,12.98,12.46,4.85,2.89,10.05,4.38,15.31,4.38V0Z"/>
  <path class="cls-1" d="M152,0c-6.7,0-13.33,1.49-19.52,4.38-6.19,2.89-11.81,7.13-16.54,12.46-4.74,5.34-8.49,11.68-11.06,18.65-2.56,6.98-3.88,14.45-3.88,22s1.32,15.03,3.88,22c2.56,6.98,6.32,13.31,11.06,18.65,4.73,5.34,10.36,9.57,16.54,12.46,6.19,2.89,12.82,4.38,19.52,4.38V0Z"/>
  <path class="cls-1" d="M64,0c-8.4,0-16.73,1.49-24.49,4.38-7.76,2.89-14.82,7.13-20.76,12.46-5.94,5.34-10.66,11.68-13.87,18.65C1.66,42.47,0,49.95,0,57.5s1.66,15.03,4.87,22c3.22,6.98,7.93,13.31,13.87,18.65,5.94,5.34,13,9.57,20.76,12.46,7.76,2.89,16.09,4.38,24.49,4.38V0Z"/>
  <rect class="cls-1" x="218" y="0" width="17" height="115"/>
  <rect class="cls-1" x="152" y="0" width="26" height="115"/>
  <rect class="cls-1" x="61" y="0" width="41" height="115"/>
</svg>