<?xml version="1.0" encoding="UTF-8"?>
<svg id="Capa_1" data-name="Capa 1" xmlns="http://www.w3.org/2000/svg" viewBox="0 0 266 94.41">
  <defs>
    <style>
      .cls-1 {
        fill: #fc441e;
      }
    </style>
  </defs>
  <path class="cls-1" d="M57.52,48.24c0,6.06,.74,12.06,2.19,17.67,1.45,5.6,3.56,10.69,6.23,14.98,2.67,4.29,5.84,7.69,9.33,10.01,3.49,2.32,7.23,3.51,11.01,3.51s7.52-1.19,11.01-3.51c3.49-2.32,6.66-5.72,9.33-10.01,2.67-4.29,4.79-9.38,6.23-14.98,1.45-5.6,2.19-11.6,2.19-17.67H57.52Z"/>
  <path class="cls-1" d="M0,48.24c0,6.06,.74,12.06,2.19,17.67,1.45,5.6,3.56,10.69,6.23,14.98,2.67,4.29,5.84,7.69,9.33,10.01,3.49,2.32,7.23,3.51,11.01,3.51s7.52-1.19,11.01-3.51c3.49-2.32,6.66-5.72,9.33-10.01,2.67-4.29,4.79-9.38,6.23-14.98,1.45-5.6,2.19-11.6,2.19-17.67H0Z"/>
  <rect class="cls-1" y="31.91" width="115.22" height="16.38"/>
  <rect class="cls-1" y=".41" width="266" height="28"/>
  <path class="cls-1" d="M266,31.91c0,8.21-1.82,16.33-5.37,23.92-3.54,7.58-8.74,14.47-15.28,20.28-6.55,5.8-14.32,10.41-22.87,13.55-8.55,3.14-17.72,4.76-26.98,4.76s-18.43-1.62-26.98-4.76c-8.55-3.14-16.32-7.74-22.87-13.55-6.55-5.8-11.74-12.69-15.28-20.28-3.54-7.58-5.37-15.71-5.37-23.92h47.63c0,2.66,.59,5.3,1.74,7.76,1.15,2.46,2.84,4.7,4.96,6.58,2.12,1.88,4.65,3.38,7.42,4.4,2.78,1.02,5.75,1.54,8.75,1.54s5.98-.52,8.75-1.54c2.77-1.02,5.3-2.51,7.42-4.4,2.12-1.88,3.81-4.12,4.96-6.58,1.15-2.46,1.74-5.1,1.74-7.76h47.63Z"/>
</svg>