<?xml version="1.0" encoding="UTF-8"?>
<svg id="Capa_1" data-name="Capa 1" xmlns="http://www.w3.org/2000/svg" viewBox="0 0 103.55 75.73">
  <defs>
    <style>
      .cls-1 {
        fill: #fc441e;
      }

      .cls-2 {
        fill: #f5f4f2;
      }
    </style>
  </defs>
  <path class="cls-1" d="M.69,37.87C.69,17.43,17.26,.87,37.69,.87H102.69V37.87c0,20.43-16.57,37-37,37H.69V37.87Z"/>
  <ellipse class="cls-2" cx="51.49" cy="37.36" rx="54.47" ry="29.2" transform="translate(-11.43 27.99) rotate(-27.49)"/>
  <path class="cls-1" d="M52.69,26.87c-2.12,0-4.16,.92-5.66,2.56-1.5,1.64-2.34,3.87-2.34,6.19v7.5c0,2.32,.84,4.55,2.34,6.19,1.5,1.64,3.54,2.56,5.66,2.56s4.16-.92,5.66-2.56c1.5-1.64,2.34-3.87,2.34-6.19v-7.5c0-2.32-.84-4.55-2.34-6.19-1.5-1.64-3.54-2.56-5.66-2.56Zm-5.71,8.75c0-1.44,.45-2.84,1.29-3.95,.83-1.12,1.99-1.88,3.28-2.17v7.38h-4.57v-1.25Zm11.43,7.5c0,1.66-.6,3.25-1.67,4.42-1.07,1.17-2.53,1.83-4.04,1.83s-2.97-.66-4.04-1.83c-1.07-1.17-1.67-2.76-1.67-4.42v-3.75h11.43v3.75Zm0-6.25h-4.57v-7.38c1.29,.29,2.45,1.06,3.28,2.17,.83,1.12,1.29,2.51,1.29,3.95v1.25Z"/>
</svg>