<?xml version="1.0" encoding="UTF-8"?>
<svg id="Capa_1" data-name="Capa 1" xmlns="http://www.w3.org/2000/svg" viewBox="0 0 103.55 75.4">
  <defs>
    <style>
      .cls-1 {
        fill: #fc441e;
      }

      .cls-2 {
        fill: #f5f4f2;
      }
    </style>
  </defs>
  <path class="cls-1" d="M.69,37.7C.69,17.26,17.26,.7,37.69,.7H102.69V37.7c0,20.43-16.57,37-37,37H.69V37.7Z"/>
  <ellipse class="cls-2" cx="51.89" cy="37.96" rx="54.47" ry="29.2" transform="translate(-11.66 28.24) rotate(-27.49)"/>
  <path class="cls-1" d="M52.5,41.85l-.17-.14c-.06-.05-.13-.08-.21-.11l-.21-.1c-.19-.04-.38-.03-.56,.02-.18,.06-.35,.16-.48,.3-.1,.12-.18,.25-.24,.4-.09,.22-.11,.46-.07,.69,.04,.23,.15,.45,.31,.61,.16,.17,.36,.28,.58,.33,.22,.05,.45,.03,.66-.06,.14-.07,.26-.16,.38-.26,.16-.17,.27-.38,.31-.62,.04-.23,.02-.47-.07-.69-.06-.14-.14-.26-.24-.37Zm3.76-17.15h-9.14c-.91,0-1.78,.38-2.42,1.05-.64,.68-1,1.59-1,2.55v16.8c0,.95,.36,1.87,1,2.55,.64,.68,1.52,1.05,2.42,1.05h9.14c.91,0,1.78-.38,2.42-1.05,.64-.68,1-1.59,1-2.55V28.3c0-.95-.36-1.87-1-2.55-.64-.68-1.52-1.05-2.42-1.05Zm1.14,20.4c0,.32-.12,.62-.33,.85-.21,.23-.51,.35-.81,.35h-9.14c-.3,0-.59-.13-.81-.35-.21-.23-.33-.53-.33-.85V28.3c0-.32,.12-.62,.33-.85,.21-.23,.51-.35,.81-.35h9.14c.3,0,.59,.13,.81,.35,.21,.23,.33,.53,.33,.85v16.8Z"/>
</svg>