<?xml version="1.0" encoding="UTF-8"?>
<svg id="Capa_1" data-name="Capa 1" xmlns="http://www.w3.org/2000/svg" viewBox="0 0 214 382">
  <defs>
    <style>
      .cls-1 {
        fill: #fc441e;
      }
    </style>
  </defs>
  <path class="cls-1" d="M214,2c0,5.65-2.77,11.24-8.15,16.46-5.38,5.22-13.26,9.96-23.19,13.95-9.93,3.99-21.73,7.16-34.71,9.32-12.98,2.16-26.9,3.27-40.95,3.27s-27.97-1.11-40.95-3.27c-12.98-2.16-24.78-5.33-34.71-9.32-9.94-3.99-17.82-8.73-23.19-13.95C2.77,13.24,0,7.65,0,2H214Z"/>
  <path class="cls-1" d="M214,65.5c0,7.42-2.77,14.77-8.15,21.62-5.38,6.86-13.26,13.08-23.19,18.33-9.93,5.25-21.73,9.41-34.71,12.25-12.98,2.84-26.9,4.3-40.95,4.3s-27.97-1.46-40.95-4.3c-12.98-2.84-24.78-7-34.71-12.25-9.94-5.25-17.82-11.47-23.19-18.33C2.77,80.27,0,72.92,0,65.5H214Z"/>
  <path class="cls-1" d="M214,159.5c0,9.52-2.77,18.95-8.15,27.74-5.38,8.8-13.26,16.79-23.19,23.52-9.93,6.73-21.73,12.07-34.71,15.72-12.98,3.64-26.9,5.52-40.95,5.52s-27.97-1.88-40.95-5.52c-12.98-3.64-24.78-8.98-34.71-15.72-9.94-6.73-17.82-14.72-23.19-23.52C2.77,178.45,0,169.02,0,159.5H214Z"/>
  <path class="cls-1" d="M214,290.5c0,12.02-2.77,23.91-8.15,35.02-5.38,11.1-13.26,21.19-23.19,29.68-9.93,8.5-21.73,15.24-34.71,19.83-12.98,4.6-26.9,6.96-40.95,6.96s-27.97-2.37-40.95-6.96c-12.98-4.6-24.78-11.34-34.71-19.83-9.94-8.5-17.82-18.58-23.19-29.68C2.77,314.41,0,302.52,0,290.5H214Z"/>
  <rect class="cls-1" y="45" width="214" height="23"/>
  <rect class="cls-1" y="122" width="214" height="38"/>
  <rect class="cls-1" y="232" width="214" height="62"/>
</svg>