<?xml version="1.0" encoding="UTF-8"?>
<svg id="Capa_1" data-name="Capa 1" xmlns="http://www.w3.org/2000/svg" viewBox="0 0 607 221">
  <defs>
    <style>
      .cls-1 {
        fill: #fc441e;
      }
    </style>
  </defs>
  <path class="cls-1" d="M604,0c-9.19,0-18.29,2.86-26.79,8.41-8.49,5.55-16.21,13.69-22.71,23.95-6.5,10.26-11.66,22.44-15.17,35.85-3.52,13.41-5.33,27.78-5.33,42.29s1.81,28.88,5.33,42.29c3.52,13.41,8.67,25.59,15.17,35.85,6.5,10.26,14.22,18.4,22.71,23.95,8.49,5.55,17.6,8.41,26.79,8.41V0Z"/>
  <path class="cls-1" d="M496.5,0c-11.89,0-23.65,2.86-34.63,8.41-10.98,5.55-20.96,13.69-29.36,23.95-8.4,10.26-15.07,22.44-19.62,35.85s-6.89,27.78-6.89,42.29,2.34,28.88,6.89,42.29c4.55,13.41,11.21,25.59,19.62,35.85,8.4,10.26,18.38,18.4,29.36,23.95,10.98,5.55,22.75,8.41,34.63,8.41V0Z"/>
  <path class="cls-1" d="M346,0c-15.23,0-30.32,2.86-44.39,8.41-14.07,5.55-26.86,13.69-37.63,23.95-10.77,10.26-19.32,22.44-25.15,35.85s-8.83,27.78-8.83,42.29,3,28.88,8.83,42.29c5.83,13.41,14.37,25.59,25.15,35.85,10.77,10.26,23.56,18.4,37.63,23.95,14.07,5.55,29.16,8.41,44.39,8.41V0Z"/>
  <path class="cls-1" d="M146,0c-19.17,0-38.16,2.86-55.87,8.41-17.71,5.55-33.81,13.69-47.37,23.95-13.56,10.26-24.31,22.44-31.65,35.85C3.78,81.62,0,95.99,0,110.5c0,14.51,3.78,28.88,11.11,42.29,7.34,13.41,18.09,25.59,31.65,35.85,13.56,10.26,29.65,18.4,47.37,23.95,17.71,5.55,36.7,8.41,55.87,8.41V0Z"/>
  <rect class="cls-1" x="496" y="0" width="38" height="221"/>
  <rect class="cls-1" x="345" y="0" width="61" height="221"/>
  <rect class="cls-1" x="138" y="0" width="94" height="221"/>
</svg>