<?xml version="1.0" encoding="UTF-8"?>
<svg id="Capa_1" data-name="Capa 1" xmlns="http://www.w3.org/2000/svg" viewBox="0 0 181 398">
  <defs>
    <style>
      .cls-1 {
        fill: #fc441e;
      }
    </style>
  </defs>
  <path class="cls-1" d="M74.35,86.32c-9.74,0-19.38,1.11-28.38,3.28-9,2.16-17.17,5.33-24.06,9.33-6.89,4-12.35,8.74-16.08,13.96C2.1,118.11,.19,123.71,.19,129.36c0,5.65,1.92,11.25,5.65,16.47,3.73,5.22,9.19,9.97,16.08,13.96,6.89,4,15.06,7.17,24.06,9.33,9,2.16,18.64,3.28,28.38,3.28V86.32Z"/>
  <path class="cls-1" d="M74.35,.23c-9.74,0-19.38,1.11-28.38,3.28-9,2.16-17.17,5.33-24.06,9.33-6.89,4-12.35,8.74-16.08,13.96C2.1,32.03,.19,37.63,.19,43.28c0,5.65,1.92,11.25,5.65,16.47,3.73,5.22,9.19,9.97,16.08,13.96,6.89,4,15.06,7.17,24.06,9.33,9,2.16,18.64,3.28,28.38,3.28V.23Z"/>
  <rect class="cls-1" x="74.28" y=".23" width="26.31" height="172.44"/>
  <rect class="cls-1" x="117" y="0" width="61" height="398"/>
  <path class="cls-1" d="M100.5,398c-13.2,0-26.27-2.74-38.46-8.07s-23.27-13.14-32.6-22.98c-9.33-9.84-16.74-21.53-21.79-34.39C2.6,319.7,0,305.92,0,292c0-13.92,2.6-27.7,7.65-40.56,5.05-12.86,12.45-24.55,21.79-34.39s20.41-17.65,32.6-22.98c12.19-5.33,25.26-8.07,38.46-8.07v71.61c-4.28,0-8.52,.89-12.48,2.62-3.96,1.73-7.55,4.26-10.58,7.45-3.03,3.19-5.43,6.98-7.07,11.16-1.64,4.17-2.48,8.65-2.48,13.16s.84,8.99,2.48,13.16c1.64,4.17,4.04,7.96,7.07,11.16,3.03,3.19,6.62,5.73,10.58,7.45,3.96,1.73,8.2,2.62,12.48,2.62v71.61Z"/>
</svg>