<?xml version="1.0" encoding="UTF-8"?>
<svg id="Capa_1" data-name="Capa 1" xmlns="http://www.w3.org/2000/svg" viewBox="0 0 144.4 103.75">
  <defs>
    <style>
      .cls-1 {
        fill: #fc441e;
      }

      .cls-2 {
        fill: #f5f4f2;
      }
    </style>
  </defs>
  <path class="cls-1" d="M1.36,51.54C1.36,23.65,23.97,1.04,51.86,1.04h91.5V51.54c0,27.89-22.61,50.5-50.5,50.5H1.36V51.54Z"/>
  <ellipse class="cls-2" cx="72.78" cy="50.87" rx="76.67" ry="37.7" transform="translate(-15.27 39.34) rotate(-27.49)"/>
  <path class="cls-1" d="M86.51,34.04h-27.3c-1.55,0-3.04,.6-4.14,1.66-1.1,1.06-1.71,2.5-1.71,4.01v15.11c0,1.5,.62,2.94,1.71,4.01s2.59,1.66,4.14,1.66h11.7v3.78h-7.8c-.52,0-1.01,.2-1.38,.55-.37,.35-.57,.83-.57,1.34s.21,.98,.57,1.34c.37,.35,.86,.55,1.38,.55h19.5c.52,0,1.01-.2,1.38-.55,.37-.35,.57-.83,.57-1.34s-.21-.98-.57-1.34c-.37-.35-.86-.55-1.38-.55h-7.8v-3.78h11.7c1.55,0,3.04-.6,4.14-1.66,1.1-1.06,1.71-2.5,1.71-4.01v-15.11c0-1.5-.62-2.94-1.71-4.01-1.1-1.06-2.58-1.66-4.14-1.66Zm1.95,20.78c0,.5-.21,.98-.57,1.34-.37,.35-.86,.55-1.38,.55h-27.3c-.52,0-1.01-.2-1.38-.55-.37-.35-.57-.83-.57-1.34v-15.11c0-.5,.21-.98,.57-1.34,.37-.35,.86-.55,1.38-.55h27.3c.52,0,1.01,.2,1.38,.55,.37,.35,.57,.83,.57,1.34v15.11Z"/>
</svg>