<?xml version="1.0" encoding="UTF-8"?>
<svg id="Capa_1" data-name="Capa 1" xmlns="http://www.w3.org/2000/svg" viewBox="0 0 142.4 103.08">
  <defs>
    <style>
      .cls-1 {
        fill: #fc441e;
      }

      .cls-2 {
        fill: #f5f4f2;
      }
    </style>
  </defs>
  <path class="cls-1" d="M1.03,51.54C1.03,23.65,23.64,1.04,51.53,1.04h89.5V51.54c0,27.89-22.61,50.5-50.5,50.5H1.03V51.54Z"/>
  <ellipse class="cls-2" cx="70.88" cy="50.87" rx="76.27" ry="37.64" transform="translate(-15.54 38.85) rotate(-27.75)"/>
  <path class="cls-1" d="M70.53,34.04c-3.05,0-5.98,1.25-8.13,3.49-2.16,2.23-3.37,5.26-3.37,8.41v10.2c0,3.16,1.21,6.18,3.37,8.41,2.16,2.23,5.08,3.49,8.13,3.49s5.98-1.25,8.13-3.49c2.16-2.23,3.37-5.26,3.37-8.41v-10.2c0-3.16-1.21-6.18-3.37-8.41-2.16-2.23-5.08-3.49-8.13-3.49Zm-8.21,11.9c0-1.96,.65-3.86,1.85-5.38,1.2-1.52,2.87-2.56,4.72-2.95v10.03h-6.57v-1.7Zm16.43,10.2c0,2.25-.87,4.42-2.41,6.01-1.54,1.59-3.63,2.49-5.81,2.49s-4.27-.9-5.81-2.49c-1.54-1.59-2.41-3.76-2.41-6.01v-5.1h16.43v5.1Zm0-8.5h-6.57v-10.03c1.86,.39,3.52,1.44,4.72,2.95,1.2,1.52,1.85,3.42,1.85,5.38v1.7Z"/>
</svg>