<svg width="66" height="64" viewBox="0 0 66 64" fill="none" xmlns="http://www.w3.org/2000/svg">
<ellipse cx="33" cy="32" rx="33" ry="32" fill="#FC441E"/>
<path d="M19 26.4952C19 22.8216 19 20.9847 19.6903 19.5816C20.2975 18.3473 21.2664 17.3438 22.4581 16.7149C23.8128 16 25.5863 16 29.1333 16H36.8667C40.4137 16 42.1872 16 43.5419 16.7149C44.7336 17.3438 45.7025 18.3473 46.3097 19.5816C47 20.9847 47 22.8216 47 26.4952V34.5048C47 38.1784 47 40.0153 46.3097 41.4184C45.7025 42.6527 44.7336 43.6562 43.5419 44.2851C42.1872 45 40.4137 45 36.8667 45H29.1333C25.5863 45 23.8128 45 22.4581 44.2851C21.2664 43.6562 20.2975 42.6527 19.6903 41.4184C19 40.0153 19 38.1784 19 34.5048V26.4952Z" fill="#F5F4F2"/>
<path d="M32.5684 34.2247H28.2295L27.3467 37.1378C27.3221 37.2461 27.2259 37.3227 27.1212 37.3174H24.9236C24.7983 37.3174 24.7544 37.2443 24.7921 37.0979L28.5488 25.605C28.5863 25.4853 28.6239 25.349 28.6615 25.196C28.7106 24.9298 28.7358 24.6592 28.7366 24.3879C28.7259 24.3078 28.7939 24.237 28.8681 24.2482H31.8546C31.9421 24.2482 31.9922 24.2815 32.0049 24.348L36.2688 37.1179C36.3063 37.251 36.2687 37.3175 36.156 37.3174H33.7142C33.6285 37.3275 33.5467 37.2667 33.5263 37.1778L32.5684 34.2247ZM28.9056 31.7106H31.8734C31.3858 29.985 30.8355 28.2819 30.3896 26.5428C29.9084 28.2849 29.3834 30.0199 28.9056 31.7106Z" fill="#FC441E"/>
<path d="M38.8042 26.3632C38.6127 26.3713 38.4216 26.3365 38.2436 26.2608C38.0656 26.1852 37.9046 26.0705 37.7712 25.9242C37.6381 25.7716 37.5348 25.5926 37.4671 25.3974C37.3994 25.2022 37.3686 24.9947 37.3767 24.7869C37.3699 24.5811 37.404 24.3761 37.4768 24.1853C37.5496 23.9945 37.6595 23.8221 37.7993 23.6795C37.9377 23.5383 38.1012 23.4277 38.2801 23.3541C38.459 23.2805 38.65 23.2453 38.8418 23.2505C39.2926 23.2505 39.6464 23.3935 39.9031 23.6795C40.0326 23.8281 40.1333 24.0024 40.1994 24.1925C40.2655 24.3825 40.2956 24.5845 40.2881 24.7869C40.296 24.9955 40.2643 25.2037 40.1949 25.3991C40.1255 25.5945 40.0199 25.773 39.8843 25.9242C39.7425 26.0726 39.5734 26.1882 39.3875 26.2638C39.2016 26.3393 39.003 26.3732 38.8042 26.3632ZM37.5082 37.1178V27.5803C37.5082 27.4606 37.5581 27.4007 37.6584 27.4007H39.9688C40.0689 27.4007 40.119 27.4606 40.1191 27.5803V37.1178C40.1191 37.2509 40.069 37.3175 39.9688 37.3174H37.6772C37.5646 37.3174 37.5082 37.2508 37.5082 37.1178Z" fill="#FC441E"/>
</svg>
