<svg width="65" height="65" viewBox="0 0 65 65" fill="none" xmlns="http://www.w3.org/2000/svg">
<circle cx="32.5" cy="32.5" r="32.5" fill="#FC441E"/>
<path d="M38.2517 20.0769C38.2517 19.2293 37.3027 19.2293 36.881 19.3353C37.4714 18.8691 38.1638 18.9821 38.4099 19.1234L44.112 21.9193C44.6554 22.1858 45 22.7401 45 23.3475V41.7409C45 42.3565 44.6462 42.9167 44.0918 43.1788L38.7262 45.7159C38.3571 45.8748 37.5558 46.2668 36.881 45.7159C37.7245 45.8748 38.1814 45.2744 38.2517 44.8683V20.0769Z" fill="#F5F4F2"/>
<path d="M36.9494 19.3199C37.397 19.2315 38.2517 19.2726 38.2517 20.0769L38.2517 26.4081L20.9638 39.4864C20.6616 39.715 20.2364 39.6771 19.979 39.3986L18.1972 37.4706C17.9181 37.1686 17.9376 36.6958 18.2407 36.418L36.881 19.3353L36.9494 19.3199Z" fill="#F5F4F2"/>
<path d="M38.2517 38.6431L20.9638 25.5647C20.6616 25.3361 20.2364 25.374 19.979 25.6525L18.1972 27.5805C17.9181 27.8825 17.9376 28.3553 18.2407 28.6331L36.881 45.7159C37.7245 45.8748 38.1814 45.2744 38.2517 44.8683L38.2517 38.6431Z" fill="#F5F4F2"/>
</svg>
