<svg width="65" height="64" viewBox="0 0 65 64" fill="none" xmlns="http://www.w3.org/2000/svg">
<ellipse cx="32.5" cy="32" rx="32.5" ry="32" fill="#FC441E"/>
<path d="M19 28.1333C19 24.5863 19 22.8128 19.6903 21.4581C20.2975 20.2664 21.2664 19.2975 22.4581 18.6903C23.8128 18 25.5863 18 29.1333 18H36.8667C40.4137 18 42.1872 18 43.5419 18.6903C44.7336 19.2975 45.7025 20.2664 46.3097 21.4581C47 22.8128 47 24.5863 47 28.1333V35.8667C47 39.4137 47 41.1872 46.3097 42.5419C45.7025 43.7336 44.7336 44.7025 43.5419 45.3097C42.1872 46 40.4137 46 36.8667 46H29.1333C25.5863 46 23.8128 46 22.4581 45.3097C21.2664 44.7025 20.2975 43.7336 19.6903 42.5419C19 41.1872 19 39.4137 19 35.8667V28.1333Z" fill="#F5F4F2"/>
<path d="M28.5921 26.1955V38.4673C28.5921 38.5958 28.5357 38.66 28.4231 38.6599H26.1502C26.0499 38.6599 25.9998 38.5957 26 38.4673V26.1955C26 26.0928 26.0563 26.0415 26.169 26.0414H28.4418C28.528 26.0288 28.6043 26.1071 28.5921 26.1955Z" fill="#FC441E"/>
<path d="M35.3165 38.8525C34.452 38.866 33.5954 38.6817 32.809 38.3131C31.1394 37.5206 30.4139 35.7665 30.4141 33.9592C30.3997 32.1563 31.3545 30.4385 32.9123 29.5861C33.9876 28.9751 35.2525 28.8199 36.4623 28.9311V25.1359C36.4623 25.0461 36.4999 25.001 36.575 25.001H38.9417C39.0064 24.9915 39.0637 25.0502 39.0544 25.1166V36.5022C39.0544 36.9719 39.101 37.4401 39.1296 37.9085C39.1342 37.9886 39.0879 38.0677 39.0168 38.1012C38.4063 38.3623 37.7703 38.5561 37.1198 38.6791C36.5249 38.7917 35.9214 38.8497 35.3165 38.8525ZM36.4623 36.4636V31.2043C34.7545 30.7298 33.0811 32.0337 33.0813 33.8436C33.04 35.7391 34.7301 36.9833 36.4623 36.4636Z" fill="#FC441E"/>
</svg>
