<svg width="66" height="64" viewBox="0 0 66 64" fill="none" xmlns="http://www.w3.org/2000/svg">
<ellipse cx="33" cy="32" rx="33" ry="32" fill="#FC441E"/>
<path d="M19 27.4952C19 23.8216 19 21.9847 19.6903 20.5816C20.2975 19.3473 21.2664 18.3438 22.4581 17.7149C23.8128 17 25.5863 17 29.1333 17H36.8667C40.4137 17 42.1872 17 43.5419 17.7149C44.7336 18.3438 45.7025 19.3473 46.3097 20.5816C47 21.9847 47 23.8216 47 27.4952V35.5048C47 39.1784 47 41.0153 46.3097 42.4184C45.7025 43.6527 44.7336 44.6562 43.5419 45.2851C42.1872 46 40.4137 46 36.8667 46H29.1333C25.5863 46 23.8128 46 22.4581 45.2851C21.2664 44.6562 20.2975 43.6527 19.6903 42.4184C19 41.0153 19 39.1784 19 35.5048V27.4952Z" fill="#F5F4F2"/>
<path d="M33.6465 25.5279L30.1528 31.6534L33.8906 38.1581C33.9683 38.3056 33.8906 38.3382 33.778 38.3382H31.1107C30.9229 38.3382 30.7914 38.3311 30.7163 38.198C30.4656 37.6793 30.2152 37.1638 29.9649 36.6517C29.7143 36.1397 29.4482 35.6176 29.1667 35.0854C28.8849 34.5535 28.6063 34.0148 28.3308 33.4692C28.0801 34.0013 27.8015 34.5334 27.5325 35.0654C27.2631 35.5976 26.997 36.1264 26.7342 36.6517C26.4713 37.1773 26.202 37.6994 25.9265 38.218C25.8764 38.3377 25.7886 38.3501 25.6635 38.3501H23.0903C22.9892 38.3501 22.977 38.2713 23.0339 38.1781L26.6591 31.853L23.1278 25.5079C23.0637 25.4174 23.1189 25.3209 23.2217 25.3283H25.8702C25.9848 25.3216 26.0862 25.3664 26.1519 25.468C26.3773 26.0002 26.6278 26.5323 26.9032 27.0642C27.1785 27.5964 27.4572 28.1219 27.7391 28.6405C28.0209 29.1593 28.2995 29.6847 28.5374 30.2168C28.7877 29.6715 29.0413 29.1395 29.2981 28.6206C29.5547 28.1018 29.8176 27.5797 30.087 27.0543C30.3562 26.5289 30.616 26.0068 30.8665 25.488C30.8998 25.3741 30.9794 25.3165 31.0919 25.3283H33.5525C33.6465 25.3283 33.6853 25.4611 33.6465 25.5279Z" fill="#FC441E"/>
<path d="M39.0371 38.5972C37.3806 38.624 35.6455 37.9176 34.7733 36.3525C34.3475 35.6012 34.1346 34.66 34.1347 33.5292C34.1276 32.6134 34.3479 31.7119 34.7733 30.9153C35.871 28.8831 38.0824 28.1217 40.1829 28.3215V24.3907C40.1829 24.2978 40.2205 24.251 40.2956 24.251H42.6623C42.727 24.2412 42.7842 24.302 42.775 24.3707V36.163C42.775 36.6495 42.8216 37.1343 42.8502 37.6195C42.8548 37.7024 42.8085 37.7844 42.7374 37.8191C41.5681 38.3371 40.3028 38.5912 39.0371 38.5972ZM40.1829 36.1231V30.6759C38.4673 30.1822 36.8017 31.5356 36.8019 33.4095C36.7612 35.3467 38.3736 36.6852 40.1829 36.1231Z" fill="#FC441E"/>
</svg>
