<svg width="64" height="64" viewBox="0 0 64 64" fill="none" xmlns="http://www.w3.org/2000/svg">
<circle cx="32" cy="32" r="32" fill="#FC441E"/>
<path d="M18 28.1333C18 24.5863 18 22.8128 18.6903 21.4581C19.2975 20.2664 20.2664 19.2975 21.4581 18.6903C22.8128 18 24.5863 18 28.1333 18H35.8667C39.4137 18 41.1872 18 42.5419 18.6903C43.7336 19.2975 44.7025 20.2664 45.3097 21.4581C46 22.8128 46 24.5863 46 28.1333V35.8667C46 39.4137 46 41.1872 45.3097 42.5419C44.7025 43.7336 43.7336 44.7025 42.5419 45.3097C41.1872 46 39.4137 46 35.8667 46H28.1333C24.5863 46 22.8128 46 21.4581 45.3097C20.2664 44.7025 19.2975 43.7336 18.6903 42.5419C18 41.1872 18 39.4137 18 35.8667V28.1333Z" fill="#F5F4F2"/>
<path d="M29.7893 35.5638H25.4504L24.5676 38.3819C24.5431 38.4864 24.4469 38.5604 24.3422 38.5553H22.1445C22.0192 38.5553 21.9754 38.4847 22.0131 38.3434L25.7697 27.2926C25.8073 27.1771 25.8448 27.0641 25.8824 26.9163C25.9316 26.6592 25.9567 26.398 25.9576 26.136C25.9468 26.0587 26.0136 25.9901 26.089 26.0012H29.0756C29.1631 26.0012 29.2131 26.0333 29.2258 26.0975L33.4897 38.3626C33.5272 38.4912 33.4896 38.5554 33.377 38.5553H30.9351C30.8495 38.565 30.7677 38.5063 30.7473 38.4204L29.7893 35.5638ZM26.1266 33.1877H29.0944C28.6068 31.5215 28.0565 29.8773 27.6105 28.1981C27.1051 29.9399 26.6384 31.5553 26.1266 33.1877Z" fill="#FC441E"/>
<path d="M36.6608 34.4757C36.8335 35.9066 38.0351 36.5888 39.3656 36.5597C40.1159 36.545 40.9177 36.4285 41.6188 36.1448C41.6812 36.0937 41.7127 36.1256 41.7127 36.2412V38.0713C41.7186 38.1665 41.6788 38.2516 41.6 38.3025C40.7286 38.6983 39.7284 38.8177 38.7833 38.8025C35.9655 38.8025 34.0304 36.8171 34.0311 33.9285C34.0238 31.1911 35.7997 28.8817 38.5579 28.8817C40.896 28.8211 42.5147 30.693 42.5212 33.0231C42.5212 33.4474 42.4975 33.8733 42.4461 34.2945C42.4361 34.3813 42.3622 34.4487 42.277 34.4487C40.4097 34.4487 38.5333 34.4757 36.6608 34.4757ZM36.6608 32.7207C37.7015 32.7207 38.7482 32.7575 39.7882 32.7111C39.9445 32.6951 40.0606 32.6654 40.0606 32.5029C40.0389 31.6391 39.3099 30.9286 38.464 30.9617C37.442 30.8983 36.7879 31.7611 36.6608 32.7207Z" fill="#FC441E"/>
</svg>
