<svg width="64" height="65" viewBox="0 0 64 65" fill="none" xmlns="http://www.w3.org/2000/svg">
<ellipse cx="32" cy="32.5" rx="32" ry="32.5" fill="#FC441E"/>
<path d="M31.9999 18C28.4382 18.0001 24.9927 19.2564 22.28 21.544C19.5672 23.8316 17.7643 27.0012 17.1937 30.4858C16.6232 33.9704 17.3223 37.5424 19.1659 40.5629C21.0095 43.5833 23.8773 45.855 27.2562 46.9715C28.0062 47.1017 28.2875 46.6557 28.2875 46.2654C28.2875 45.9123 28.2687 44.7415 28.2687 43.4965C24.5 44.184 23.525 42.5859 23.225 41.7497C22.8921 40.9363 22.3644 40.2156 21.6875 39.6497C21.1625 39.3709 20.4125 38.6833 21.6687 38.6648C22.1484 38.7164 22.6085 38.8818 23.0099 39.1471C23.4114 39.4123 23.7424 39.7696 23.975 40.1886C24.1801 40.5539 24.456 40.8754 24.7868 41.1349C25.1175 41.3943 25.4967 41.5865 25.9025 41.7004C26.3084 41.8143 26.7329 41.8478 27.1518 41.7988C27.5707 41.7499 27.9757 41.6195 28.3437 41.4151C28.4086 40.6593 28.7485 39.9527 29.3 39.4267C25.9625 39.0551 22.475 37.7727 22.475 32.0863C22.4539 30.6087 23.004 29.1792 24.0125 28.0908C23.5539 26.8067 23.6076 25.3974 24.1625 24.1512C24.1625 24.1512 25.4187 23.7609 28.2875 25.675C30.7419 25.006 33.333 25.006 35.7874 25.675C38.6561 23.7423 39.9124 24.1512 39.9124 24.1512C40.4674 25.3974 40.521 26.8067 40.0624 28.0908C41.0739 29.1773 41.6245 30.6081 41.5999 32.0863C41.5999 37.7913 38.0936 39.0551 34.7562 39.4267C35.1141 39.7863 35.3898 40.2181 35.5645 40.6926C35.7392 41.1672 35.8089 41.6735 35.7687 42.1771C35.7687 44.1655 35.7499 45.7636 35.7499 46.2654C35.7499 46.6557 36.0311 47.1203 36.7811 46.9716C40.1541 45.846 43.0137 43.569 44.8495 40.547C46.6852 37.525 47.3776 33.9547 46.8031 30.4735C46.2286 26.9924 44.4246 23.8268 41.7131 21.542C39.0015 19.2572 35.559 18.0018 31.9999 18Z" fill="#F5F4F2"/>
</svg>
