<svg width="64" height="65" viewBox="0 0 64 65" fill="none" xmlns="http://www.w3.org/2000/svg">
<ellipse cx="32" cy="32.5" rx="32" ry="32.5" fill="#FC441E"/>
<path d="M15.7526 34.817C14.7491 33.8135 14.7491 32.1865 15.7526 31.183L31.183 15.7526C32.1865 14.7491 33.8135 14.7491 34.817 15.7526L50.2474 31.183C51.2509 32.1865 51.2509 33.8135 50.2474 34.817L34.817 50.2474C33.8135 51.2509 32.1865 51.2509 31.183 50.2474L15.7526 34.817Z" fill="#F5F4F2"/>
<path d="M28.0491 18.9364L26.4865 20.499L30.5222 24.5347C30.359 24.885 30.2679 25.2756 30.2679 25.6875C30.2679 26.857 31.0026 27.8548 32.0357 28.2446V38.117C31.0026 38.5068 30.2679 39.5046 30.2679 40.6741C30.2679 42.183 31.4911 43.4062 33 43.4062C34.5089 43.4062 35.7321 42.183 35.7321 40.6741C35.7321 39.6138 35.1282 38.6946 34.2455 38.2417V28.258L38.1034 32.1158C37.9481 32.459 37.8616 32.8399 37.8616 33.2411C37.8616 34.75 39.0848 35.9732 40.5938 35.9732C42.1027 35.9732 43.3259 34.75 43.3259 33.2411C43.3259 31.7322 42.1027 30.5089 40.5938 30.5089C40.3005 30.5089 40.0181 30.5551 39.7533 30.6406L35.6101 26.4974C35.6894 26.2415 35.7321 25.9695 35.7321 25.6875C35.7321 24.1786 34.5089 22.9554 33 22.9554C32.718 22.9554 32.446 22.9981 32.1901 23.0774L28.0491 18.9364Z" fill="#FC441E"/>
</svg>
