<svg width="65" height="64" viewBox="0 0 65 64" fill="none" xmlns="http://www.w3.org/2000/svg">
<ellipse cx="32.5" cy="32" rx="32.5" ry="32" fill="#FC441E"/>
<path d="M18 26.4952C18 22.8216 18 20.9847 18.6903 19.5816C19.2975 18.3473 20.2664 17.3438 21.4581 16.7149C22.8128 16 24.5863 16 28.1333 16H35.8667C39.4137 16 41.1872 16 42.5419 16.7149C43.7336 17.3438 44.7025 18.3473 45.3097 19.5816C46 20.9847 46 22.8216 46 26.4952V34.5048C46 38.1784 46 40.0153 45.3097 41.4184C44.7025 42.6527 43.7336 43.6562 42.5419 44.2851C41.1872 45 39.4137 45 35.8667 45H28.1333C24.5863 45 22.8128 45 21.4581 44.2851C20.2664 43.6562 19.2975 42.6527 18.6903 41.4184C18 40.0153 18 38.1784 18 34.5048V26.4952Z" fill="#F5F4F2"/>
<path d="M24 37.249V24.4964C24 24.4096 24.035 24.3601 24.1167 24.3601C25.3223 24.3601 26.5274 24.2857 27.7333 24.2857C29.6902 24.2857 31.809 24.9787 32.5517 27.099C32.7267 27.6195 32.82 28.1524 32.82 28.7101C32.82 29.7759 32.5867 30.6558 32.12 31.3498C30.8164 33.2885 28.557 33.2584 26.5317 33.2584V37.2366C26.5475 37.3543 26.4506 37.4101 26.3567 37.4101H24.14C24.0467 37.4101 24 37.3605 24 37.249ZM26.5433 26.752V30.9161C27.3464 30.977 28.1867 30.9836 28.9583 30.7178C29.8102 30.4633 30.2767 29.6996 30.2767 28.7844C30.3003 28.0046 29.8901 27.2564 29.1917 26.975C28.4294 26.6467 27.3662 26.6271 26.5433 26.752Z" fill="#FC441E"/>
<path d="M40.0967 30.0934C39.7437 29.9007 39.3677 29.7597 38.979 29.6743C38.4796 29.5526 36.5098 29.1263 36.509 30.1931C36.5265 30.7887 37.4393 31.0805 37.8426 31.2506C39.2585 31.7541 40.8607 32.654 40.8292 34.4631C40.8725 36.7151 38.7657 37.6154 36.9598 37.6156C36.0197 37.6257 35.0403 37.4749 34.1799 37.0569C34.0977 37.0119 34.0449 36.9156 34.0484 36.8175V34.6626C34.0391 34.5762 34.1287 34.5007 34.1987 34.5628C35.0417 35.0909 36.0409 35.3472 37.0162 35.3609C37.4467 35.3609 38.2999 35.3177 38.2935 34.6626C38.2935 34.0339 37.2728 33.7448 36.8659 33.5851C36.2761 33.367 35.7169 33.065 35.2036 32.6872C34.4862 32.1572 34.0361 31.3075 34.0484 30.3727C34.0442 28.2522 35.9835 27.3004 37.73 27.2999C38.5464 27.293 39.4232 27.3556 40.1832 27.699C40.2925 27.7323 40.3151 27.8515 40.3147 27.9584V29.9736C40.3216 30.0987 40.1875 30.1413 40.0967 30.0934Z" fill="#FC441E"/>
</svg>
