<svg width="64" height="64" viewBox="0 0 64 64" fill="none" xmlns="http://www.w3.org/2000/svg">
<circle cx="32" cy="32" r="32" fill="#FC441E"/>
<path fill-rule="evenodd" clip-rule="evenodd" d="M32 31C32 28.2386 34.2386 26 37 26C39.7614 26 42 28.2386 42 31C42 33.7614 39.7614 36 37 36C34.2386 36 32 33.7614 32 31Z" fill="#F5F4F2"/>
<path fill-rule="evenodd" clip-rule="evenodd" d="M22 41C22 38.2386 24.2386 36 27 36H32V41C32 43.7614 29.7614 46 27 46C24.2386 46 22 43.7614 22 41Z" fill="#F5F4F2"/>
<path fill-rule="evenodd" clip-rule="evenodd" d="M32 16V26H37C39.7614 26 42 23.7614 42 21C42 18.2386 39.7614 16 37 16H32Z" fill="#F5F4F2"/>
<path fill-rule="evenodd" clip-rule="evenodd" d="M22 21C22 23.7614 24.2386 26 27 26H32V16H27C24.2386 16 22 18.2386 22 21Z" fill="#F5F4F2"/>
<path fill-rule="evenodd" clip-rule="evenodd" d="M22 31C22 33.7614 24.2386 36 27 36H32V26H27C24.2386 26 22 28.2386 22 31Z" fill="#F5F4F2"/>
<path d="M31.875 16.125V25.875H27C24.3076 25.875 22.125 23.6924 22.125 21C22.125 18.3076 24.3076 16.125 27 16.125H31.875ZM27 26.125H31.875V31V35.875H27C24.3076 35.875 22.125 33.6924 22.125 31C22.125 28.3076 24.3076 26.125 27 26.125ZM32.125 31C32.125 28.3076 34.3076 26.125 37 26.125C39.6924 26.125 41.875 28.3076 41.875 31C41.875 33.6924 39.6924 35.875 37 35.875C34.3076 35.875 32.125 33.6924 32.125 31ZM27 36.125H31.875V41C31.875 43.6924 29.6924 45.875 27 45.875C24.3076 45.875 22.125 43.6924 22.125 41C22.125 38.3076 24.3076 36.125 27 36.125ZM32.125 25.875V16.125H37C39.6924 16.125 41.875 18.3076 41.875 21C41.875 23.6924 39.6924 25.875 37 25.875H32.125Z" stroke="#FC441E" stroke-width="0.25"/>
</svg>
