<svg width="66" height="65" viewBox="0 0 66 65" fill="none" xmlns="http://www.w3.org/2000/svg">
<ellipse cx="33" cy="32.5" rx="33" ry="32.5" fill="#FC441E"/>
<path d="M20 19H48V47H20V19Z" fill="#F5F4F2"/>
<path d="M37 42.2877L39.0615 40.9235C39.2231 41.4311 40.2462 42.6366 41.5385 42.6366C42.8308 42.6366 43.4308 41.9308 43.4308 41.4628C43.4308 40.1876 42.1112 39.738 41.4774 39.5221C41.3741 39.4869 41.289 39.4579 41.2308 39.4326C41.2009 39.4196 41.1558 39.4023 41.0979 39.3802C40.393 39.1109 37.7923 38.1173 37.7923 35.2371C37.7923 32.0648 40.8538 31.7 41.5462 31.7C41.9991 31.7 44.1769 31.7555 45.2615 33.7937L43.2615 35.1896C42.8231 34.3013 42.0946 34.0079 41.6462 34.0079C40.5385 34.0079 40.3077 34.8199 40.3077 35.1896C40.3077 36.2268 41.5112 36.6917 42.5273 37.0842C42.7932 37.1869 43.0462 37.2846 43.2615 37.3864C44.3692 37.9098 46 38.7663 46 41.4628C46 42.8134 44.8672 45 42.0154 45C38.1846 45 37.1692 42.7001 37 42.2877Z" fill="#FC441E"/>
<path d="M27 42.5585L29.1487 41.1951C29.317 41.7024 29.9713 42.6378 30.9205 42.6378C31.8698 42.6378 32.3557 41.6628 32.3557 41.1951V32H34.9982V41.1951C35.041 42.4634 34.3376 45 31.2332 45C28.379 45 27.1924 43.3037 27 42.5585Z" fill="#FC441E"/>
</svg>
