<?xml version="1.0" encoding="UTF-8"?>
<svg id="Capa_1" data-name="Capa 1" xmlns="http://www.w3.org/2000/svg" viewBox="0 0 143.07 103.42">
  <defs>
    <style>
      .cls-1 {
        fill: #fc441e;
      }

      .cls-2 {
        fill: #f5f4f2;
      }
    </style>
  </defs>
  <path class="cls-1" d="M1.04,51.54C1.04,23.65,23.65,1.04,51.54,1.04h90.5V51.54c0,27.89-22.61,50.5-50.5,50.5H1.04V51.54Z"/>
  <ellipse class="cls-2" cx="71.38" cy="50.87" rx="76.67" ry="37.7" transform="translate(-15.42 38.69) rotate(-27.49)"/>
  <path class="cls-1" d="M72.7,58.34l-.25-.2c-.09-.06-.19-.12-.3-.15l-.3-.14c-.27-.06-.54-.05-.8,.03-.26,.08-.5,.23-.69,.42-.15,.17-.26,.35-.35,.56-.12,.31-.16,.65-.09,.98s.22,.63,.45,.87c.23,.24,.52,.4,.84,.47,.32,.07,.65,.04,.95-.09,.2-.1,.38-.22,.54-.37,.23-.24,.38-.54,.44-.87,.06-.33,.03-.67-.1-.98-.08-.2-.2-.38-.35-.53Zm5.41-24.29h-13.14c-1.31,0-2.56,.54-3.49,1.49-.92,.96-1.44,2.25-1.44,3.61v23.8c0,1.35,.52,2.65,1.44,3.61,.92,.96,2.18,1.49,3.49,1.49h13.14c1.31,0,2.56-.54,3.49-1.49,.92-.96,1.44-2.25,1.44-3.61v-23.8c0-1.35-.52-2.65-1.44-3.61-.92-.96-2.18-1.49-3.49-1.49Zm1.64,28.9c0,.45-.17,.88-.48,1.2-.31,.32-.73,.5-1.16,.5h-13.14c-.44,0-.85-.18-1.16-.5-.31-.32-.48-.75-.48-1.2v-23.8c0-.45,.17-.88,.48-1.2,.31-.32,.73-.5,1.16-.5h13.14c.44,0,.85,.18,1.16,.5,.31,.32,.48,.75,.48,1.2v23.8Z"/>
</svg>